HIERARCHY
ROOT hips
{
  OFFSET 0 10.680822821525009 1.3929502295107734
  CHANNELS 6 Xposition Yposition Zposition Yrotation Xrotation Zrotation
  JOINT spine
  {
    OFFSET -7.042017322922631e-31 0.6058489940359625 0
    CHANNELS 3 Yrotation Xrotation Zrotation
    JOINT chest
    {
      OFFSET 0 1.2699794144455032 0
      CHANNELS 3 Yrotation Xrotation Zrotation
      JOINT upperChest
      {
        OFFSET 0 1.217799211677689 0
        CHANNELS 3 Yrotation Xrotation Zrotation
        JOINT neck
        {
          OFFSET 0 1.5248826104153006 0
          CHANNELS 3 Yrotation Xrotation Zrotation
          JOINT head
          {
            OFFSET 0 0.8197772727844447 0
            CHANNELS 3 Yrotation Xrotation Zrotation
            JOINT leftEye
            {
              OFFSET 0.2793952361220866 0.6769952096623495 0.1830357412467788
              CHANNELS 3 Yrotation Xrotation Zrotation
              End Site
              {
                OFFSET 0.2793952361220866 0.6769952096623495 0.1830357412467788
              }
            }
            JOINT rightEye
            {
              OFFSET -0.27939522230689573 0.676995205357064 0.18303631459760622
              CHANNELS 3 Yrotation Xrotation Zrotation
              End Site
              {
                OFFSET -0.27939522230689573 0.676995205357064 0.18303631459760622
              }
            }
          }
        }
        JOINT leftShoulder
        {
          OFFSET 0.41486978509200423 1.1670505408695453 0
          CHANNELS 3 Yrotation Xrotation Zrotation
          JOINT leftUpperArm
          {
            OFFSET 0.9737926108153417 0 0
            CHANNELS 3 Yrotation Xrotation Zrotation
            JOINT leftLowerArm
            {
              OFFSET 2.5269332222665284 0 0
              CHANNELS 3 Yrotation Xrotation Zrotation
              JOINT leftHand
              {
                OFFSET 2.4263782738425914 0 0
                CHANNELS 3 Yrotation Xrotation Zrotation
                JOINT leftIndexProximal
                {
                  OFFSET 0.724320348022514 0.08170607082582437 0.20360061616140124
                  CHANNELS 3 Yrotation Xrotation Zrotation
                  JOINT leftIndexIntermediate
                  {
                    OFFSET 0.36548960630744587 -0.010566596513783999 -0.01414783573280308
                    CHANNELS 3 Yrotation Xrotation Zrotation
                    JOINT leftIndexDistal
                    {
                      OFFSET 0.22502819650693362 -0.007863819831430696 -0.007567681939621526
                      CHANNELS 3 Yrotation Xrotation Zrotation
                      End Site
                      {
                        OFFSET 0.22502819650693362 -0.007863819831430696 -0.007567681939621526
                      }
                    }
                  }
                }
                JOINT leftLittleProximal
                {
                  OFFSET 0.6720322998298205 0.08170601055037707 -0.3230036039466837
                  CHANNELS 3 Yrotation Xrotation Zrotation
                  JOINT leftLittleIntermediate
                  {
                    OFFSET 0.34583592281688713 5.476543019078406e-8 1.3869203337180114e-7
                    CHANNELS 3 Yrotation Xrotation Zrotation
                    JOINT leftLittleDistal
                    {
                      OFFSET 0.19925728062053938 0.003098047439490381 0.0038303983709246925
                      CHANNELS 3 Yrotation Xrotation Zrotation
                      End Site
                      {
                        OFFSET 0.19925728062053938 0.003098047439490381 0.0038303983709246925
                      }
                    }
                  }
                }
                JOINT leftMiddleProximal
                {
                  OFFSET 0.7300436596551069 0.0817073395107144 0.022661722987926763
                  CHANNELS 3 Yrotation Xrotation Zrotation
                  JOINT leftMiddleIntermediate
                  {
                    OFFSET 0.40758254347686607 -0.0000012383587111308714 2.408460318820138e-7
                    CHANNELS 3 Yrotation Xrotation Zrotation
                    JOINT leftMiddleDistal
                    {
                      OFFSET 0.2514490105498507 0.0000013869132886590307 9.738618134136345e-8
                      CHANNELS 3 Yrotation Xrotation Zrotation
                      End Site
                      {
                        OFFSET 0.2514490105498507 0.0000013869132886590307 9.738618134136345e-8
                      }
                    }
                  }
                }
                JOINT leftRingProximal
                {
                  OFFSET 0.7217261161191838 0.08170601902187746 -0.15043395722184966
                  CHANNELS 3 Yrotation Xrotation Zrotation
                  JOINT leftRingIntermediate
                  {
                    OFFSET 0.37808807487521556 0.0000013754022405443322 2.2046919317952884e-7
                    CHANNELS 3 Yrotation Xrotation Zrotation
                    JOINT leftRingDistal
                    {
                      OFFSET 0.21812105442344254 -0.002713483731960231 -0.004991354517454624
                      CHANNELS 3 Yrotation Xrotation Zrotation
                      End Site
                      {
                        OFFSET 0.21812105442344254 -0.002713483731960231 -0.004991354517454624
                      }
                    }
                  }
                }
                JOINT leftThumbProximal
                {
                  OFFSET 0.10793587079521427 -0.1652791240518252 -0.07775251827190094
                  CHANNELS 3 Yrotation Xrotation Zrotation
                  JOINT leftThumbIntermediate
                  {
                    OFFSET 0.40355819082296684 -0.017484006740276614 0.3177776014416309
                    CHANNELS 3 Yrotation Xrotation Zrotation
                    JOINT leftThumbDistal
                    {
                      OFFSET 0.2318764658022603 -0.018510186824293617 0.21396001800186287
                      CHANNELS 3 Yrotation Xrotation Zrotation
                      End Site
                      {
                        OFFSET 0.2318764658022603 -0.018510186824293617 0.21396001800186287
                      }
                    }
                  }
                }
              }
            }
          }
        }
        JOINT rightShoulder
        {
          OFFSET -0.4148697850920044 1.1670505408695453 0
          CHANNELS 3 Yrotation Xrotation Zrotation
          JOINT rightUpperArm
          {
            OFFSET -0.9737926108153414 0 0
            CHANNELS 3 Yrotation Xrotation Zrotation
            JOINT rightLowerArm
            {
              OFFSET -2.5269332222665293 0 0
              CHANNELS 3 Yrotation Xrotation Zrotation
              JOINT rightHand
              {
                OFFSET -2.42637827384259 0 0
                CHANNELS 3 Yrotation Xrotation Zrotation
                JOINT rightIndexProximal
                {
                  OFFSET -0.724320348022514 0.08170607082582437 0.20360061616140124
                  CHANNELS 3 Yrotation Xrotation Zrotation
                  JOINT rightIndexIntermediate
                  {
                    OFFSET -0.36548960630744587 -0.010566596513783999 -0.01414783573280308
                    CHANNELS 3 Yrotation Xrotation Zrotation
                    JOINT rightIndexDistal
                    {
                      OFFSET -0.22502819650693362 -0.007863819831430696 -0.007567681939621526
                      CHANNELS 3 Yrotation Xrotation Zrotation
                      End Site
                      {
                        OFFSET -0.22502819650693362 -0.007863819831430696 -0.007567681939621526
                      }
                    }
                  }
                }
                JOINT rightLittleProximal
                {
                  OFFSET -0.6720322998298205 0.08170601055037707 -0.3230036039466837
                  CHANNELS 3 Yrotation Xrotation Zrotation
                  JOINT rightLittleIntermediate
                  {
                    OFFSET -0.34583592281688713 5.476543019078406e-8 1.3869203337180114e-7
                    CHANNELS 3 Yrotation Xrotation Zrotation
                    JOINT rightLittleDistal
                    {
                      OFFSET -0.19925728062053938 0.003098047439490381 0.0038303983709246925
                      CHANNELS 3 Yrotation Xrotation Zrotation
                      End Site
                      {
                        OFFSET -0.19925728062053938 0.003098047439490381 0.0038303983709246925
                      }
                    }
                  }
                }
                JOINT rightMiddleProximal
                {
                  OFFSET -0.7300436596551069 0.0817073395107144 0.022661722987926763
                  CHANNELS 3 Yrotation Xrotation Zrotation
                  JOINT rightMiddleIntermediate
                  {
                    OFFSET -0.40758254347686607 -0.0000012383587111308714 2.408460318820138e-7
                    CHANNELS 3 Yrotation Xrotation Zrotation
                    JOINT rightMiddleDistal
                    {
                      OFFSET -0.2514490105498507 0.0000013869132886590307 9.738618134136345e-8
                      CHANNELS 3 Yrotation Xrotation Zrotation
                      End Site
                      {
                        OFFSET -0.2514490105498507 0.0000013869132886590307 9.738618134136345e-8
                      }
                    }
                  }
                }
                JOINT rightRingProximal
                {
                  OFFSET -0.7217261161191838 0.08170601902187746 -0.15043395722184966
                  CHANNELS 3 Yrotation Xrotation Zrotation
                  JOINT rightRingIntermediate
                  {
                    OFFSET -0.37808807487521556 0.0000013754022405443322 2.2046919317952884e-7
                    CHANNELS 3 Yrotation Xrotation Zrotation
                    JOINT rightRingDistal
                    {
                      OFFSET -0.21812105442344254 -0.002713483731960231 -0.004991354517454624
                      CHANNELS 3 Yrotation Xrotation Zrotation
                      End Site
                      {
                        OFFSET -0.21812105442344254 -0.002713483731960231 -0.004991354517454624
                      }
                    }
                  }
                }
                JOINT rightThumbProximal
                {
                  OFFSET -0.10793587079521427 -0.1652791240518252 -0.07775251827190094
                  CHANNELS 3 Yrotation Xrotation Zrotation
                  JOINT rightThumbIntermediate
                  {
                    OFFSET -0.40355819082296684 -0.017484006740276614 0.3177776014416309
                    CHANNELS 3 Yrotation Xrotation Zrotation
                    JOINT rightThumbDistal
                    {
                      OFFSET -0.2318764658022603 -0.018510186824293617 0.21396001800186287
                      CHANNELS 3 Yrotation Xrotation Zrotation
                      End Site
                      {
                        OFFSET -0.2318764658022603 -0.018510186824293617 0.21396001800186287
                      }
                    }
                  }
                }
              }
            }
          }
        }
      }
    }
  }
  JOINT leftUpperLeg
  {
    OFFSET 0.8486251390888677 -0.4421577294694363 0
    CHANNELS 3 Yrotation Xrotation Zrotation
    JOINT leftLowerLeg
    {
      OFFSET 0 -4.10147812638609 0
      CHANNELS 3 Yrotation Xrotation Zrotation
      JOINT leftFoot
      {
        OFFSET -0.0002543926476658853 -4.77292286812444 0.007402811231737388
        CHANNELS 3 Yrotation Xrotation Zrotation
        JOINT leftToes
        {
          OFFSET 0 -0.7027875951174846 1.2062924140498823
          CHANNELS 3 Yrotation Xrotation Zrotation
          End Site
          {
            OFFSET 0 -0.7027875951174846 1.2062924140498823
          }
        }
      }
    }
  }
  JOINT rightUpperLeg
  {
    OFFSET -0.8486251390888677 -0.4421577294694363 0
    CHANNELS 3 Yrotation Xrotation Zrotation
    JOINT rightLowerLeg
    {
      OFFSET 0 -4.10147812638609 0
      CHANNELS 3 Yrotation Xrotation Zrotation
      JOINT rightFoot
      {
        OFFSET 0.0002543926476658853 -4.77292286812444 0.007402811231737388
        CHANNELS 3 Yrotation Xrotation Zrotation
        JOINT rightToes
        {
          OFFSET 0 -0.7027875951174846 1.2062924140498823
          CHANNELS 3 Yrotation Xrotation Zrotation
          End Site
          {
            OFFSET 0 -0.7027875951174846 1.2062924140498823
          }
        }
      }
    }
  }
}
MOTION
Frames: 4
Frame Time: 0.03333333333333333
0.014769897796213627 -0.08983370867100504 0.008951734751462936 -5.2778802782795955 -3.735653576163417 -3.34843006717751 1.575801856684003 3.291927273993421 2.7997526411691886 0.7561218335666927 2.2585318429678005 3.117553989061964 0 0 0 -0.07151605029216805 5.622633955106213 0.457849853097575 1.385532372261843 -7.5487497809127 -0.2841589208782264 0 0 0 0 0 0 -17.605289947629803 1.014729620070999 -12.410468901119765 -20.718087525334102 3.2264573202729943 -70.8921390027921 -1.4525873926867854 0.00022669886753301998 0.018745141130581577 -1.7209708171180853 -33.22062335353541 -5.230252122880282 -1.0642242583431507 0.014048700415021773 -7.57818313861877 1.5318586961954563 0.23425962602018463 -17.3905106987117 0.7174894771852599 0.05047617838280218 -8.04801342585124 5.221002200559796 0.8408350053936803 -27.112166028811227 1.534367698326772 0.23505345540580347 -17.41986808602456 1.457314180529078 0.21153880298142963 -16.519506067275803 2.4613942086364027 -0.10433902794628593 -15.73504578962496 1.534306796809814 0.23503123042356758 -17.41921513456244 1.6200949957906392 0.26278332490056755 -18.426936606432644 3.3775089712762068 0.08919222805265774 -21.17190017175749 1.830428178036914 0.33797815636356987 -20.923351305734183 1.5737285137507007 0.247582934944872 -17.88151043486385 2.221034551223126 -0.6676028115894781 4.783274948649752 26.11894746261891 10.718381179041979 21.928808969852284 3.766519476696762 -13.790963062078406 8.085589446622624 15.533989067229962 1.1488647500924583 14.828606104358375 28.79305028036243 11.311864487352956 64.73043787908858 6.689266027432113 0.005041888987681416 -0.0861899229278045 -0.4645745888892497 -20.179276061547007 6.959240918134022 1.3523625909625723 0.03257627550648893 6.812336869606034 -1.1749178087301526 0.18007256432298713 17.4250869770725 -0.5505114830540219 0.03880720016519804 8.06644614680419 -4.556039444931167 0.6707110264425222 26.473463243186078 -1.1764168942876385 0.18051883668543223 17.44819225807317 -1.1172192254525615 0.16243342854901244 16.544257636720836 -2.0146902699155302 -0.16055693334214488 15.03076508416636 -1.1765365046945593 0.1805580037458936 17.449850205239063 -1.2423029350008687 0.2018883231955849 18.45939305218554 -2.819232380560305 -0.014537005595019636 20.50022218563047 -1.403566886127761 0.25964361972834604 20.960676525915858 -1.206515219674475 0.19012408058484506 17.909320438320965 -0.2236124226532529 -1.6665111631902503 -4.20791288338854 -30.668893762751978 11.047836048048516 -22.20106462981521 -3.859514431764459 -15.534969862956022 -11.62229212762707 15.122724487335516 -10.412134686978993 7.3528780330866965 2.1335683869099484 12.160289232555053 4.58832845929897 0.42447820688227433 1.265844177229815 -7.10674286062975 0.000008419193533010391 -4.933138058777341 -0.0000018415748486951105 -10.339235402375024 0.6046805615967336 3.523106206928397 -9.873654238745774 7.314661801696952 -4.419374561795318 -1.6105689354280546 -3.692208564193655 3.3341548460576877 0.00000631727689823794 -7.273474574230913 -0.0000018008404467534423
0.0027809697203338146 -0.10225531664219645 0.015454825013875961 -5.140196631218306 -3.676202233828808 -2.9488729674476133 1.5772424083618712 3.2806750300407894 2.518422964919844 0.7479035643337156 2.2525875341882906 2.9986153658936807 0 0 0 -0.049974959125628285 5.512551124015174 0.4464735715479259 1.4413464437532353 -7.601472801943046 -0.2893290133572239 0 0 0 0 0 0 -17.60083498121366 1.0130870225578592 -12.423746135322636 -20.26389050319166 3.272371955382173 -70.60653441763166 -1.6421222278628689 0.0003055286105913668 0.02122025078746493 -1.8621799988734737 -32.29737068112178 -5.199474602668682 -1.094658049685102 0.07399999758825514 -7.25277861003359 1.577295161650823 0.24872174626787472 -17.923399980602685 0.810122696589043 0.06443292328128299 -9.095330676414088 5.326925754143569 0.7690172791289358 -27.99687312331934 1.6124201445403383 0.2602274735086607 -18.33655048032403 1.5414017943429188 0.23726218659047008 -17.502279976635936 2.505444627558613 -0.10165001014174956 -16.143675271580186 1.6111754057127927 0.2598095470052143 -18.321856541250284 1.6294841560505633 0.2659220436754806 -18.537493721920693 3.427805748048245 0.09194863971367619 -22.181283943045344 1.8748690899106053 0.35521773592089656 -21.45600414975051 1.5807968406832784 0.24985415432590422 -17.96460077402332 2.076793336109143 -0.6601601805474511 4.831926325727663 25.597687439058635 10.677952386972592 21.40904121015181 3.673690207049616 -13.865518830185625 8.322382841309144 15.509280230856652 1.15620014974029 14.786972250747596 28.30499312405238 11.238572399394883 64.50581160275688 6.64172495716346 0.004983150777992179 -0.08559961915086704 -0.37934110194395765 -19.35676029790775 6.930530149877235 1.3043184024750818 0.03307444584072806 7.447735509696222 -1.2450456411989137 0.2027775073120683 18.501633869579926 -0.6256394447616594 0.050206986116275366 9.17606074348057 -4.5842028532382155 0.7003927779789171 27.023474948095352 -1.2449956002214202 0.20277881466115175 18.500724005398226 -1.1903820614227443 0.18494174017273063 17.662109690079063 -2.058045359180036 -0.16271169317677658 15.61494322681651 -1.2448643951836644 0.20272399938181468 18.498982576857273 -1.3186248724079328 0.22823556354829255 19.638162032168378 -2.8609123467861792 -0.007752575725341238 21.042004736147714 -1.4721755204598972 0.28668197814990437 22.037169173438297 -1.2832052614350757 0.21578798392390672 19.090152055650865 -0.22355072522069863 -1.6665165015335106 -4.207930345954295 -30.66863898452542 11.04781430067574 -22.200882381733084 -3.859518648970257 -15.534971635250248 -11.62234287668586 15.137857189282057 -10.578838111152514 6.983609882487528 2.0770488144873767 12.603549156915074 4.59601386313561 0.3809157169393074 1.0285775754844892 -7.153626439678768 -0.000006538494757942524 -4.912997514691239 -0.0000011912000976461218 -10.312049482238598 -0.4516874896556876 3.1840440747187158 -10.043291183466899 9.261971266666032 -4.782653494586306 -1.788384950486335 -4.726781898432917 3.5265596559501677 -0.000004991778745657104 -7.364087878094893 0.000003502955702252633
-0.022012457251548767 -0.12397143450108317 0.030335836112499237 -4.837019098873901 -3.5929780247598675 -2.1867119817273335 1.5698710468316812 3.2708974329847385 2.0176199993174304 0.725870872135791 2.2409610848286543 2.7482418273699065 0 0 0 0.009276441960900328 5.404306780335495 0.41500396634112086 1.615686016207271 -7.8129195976810815 -0.33648969704831944 0 0 0 0 0 0 -17.585222944522375 1.0149418161066006 -12.429742814045051 -19.24822387612669 3.4631016954521074 -70.01525569315481 -2.314258275806979 0.0005943161915797726 0.02989296074894489 -1.9342946094994538 -30.269904154463347 -5.284369196996489 -1.1917250467076297 0.19280813313174427 -6.347720563913178 1.6540559702646473 0.2742181476434846 -18.82742991195953 0.9814618062356028 0.09484459707882785 -11.040794189256864 5.54352004944757 0.6364438185143234 -29.653791428132454 1.7714867757136867 0.3158608432518767 -20.219830181453283 1.712608105787935 0.29458818391872493 -19.520196244937722 2.578851936234355 -0.09581984805665561 -16.80140149960841 1.747902433070517 0.30724774064280275 -19.939204821262198 1.6411822034215164 0.26985208676731703 -18.675478153301132 3.5243299575601843 0.09763956912539705 -24.111691684612993 1.9498881662409135 0.3853709030945676 -22.359524977059852 1.5880209133817775 0.2522055495575072 -18.049504524597864 1.8036377294476704 -0.646133315583586 4.924255309538977 24.414245757290974 10.597392337684443 20.362447694959744 3.3681453232572895 -14.03785460200136 8.793775809781783 15.474742290945237 1.1655598568864198 14.736343051118675 27.328315219074792 11.145958382483402 64.0232095841461 6.612602864233377 0.004916338404225378 -0.08524424292818121 -0.10686979046683856 -17.668656102765638 6.76297739684606 1.1933256416901918 0.021334679999880306 8.948783035032418 -1.3928991673377693 0.2555678232275555 20.793952432210467 -0.7766442332587534 0.07766216947041761 11.417476726567687 -4.637318638622745 0.7646269419287473 28.042297822961725 -1.3841242045813256 0.2522652609305115 20.656850651750318 -1.3386889372670947 0.23545305152102222 19.949762623116893 -2.1466451839854095 -0.16612233283365938 16.825283670917585 -1.382841480124127 0.2517878901223515 20.63692665432582 -1.4869366075494568 0.2926785606792743 22.26982650358872 -2.947147037915491 0.010277946488453227 22.013421877435157 -1.6164853504386438 0.34847493140930624 24.329277574314602 -1.452855832248659 0.2789232689839879 21.733289915139977 -0.2237047752876451 -1.6665124443926316 -4.207871318821017 -30.66976263977148 11.047842137313182 -22.20153408996676 -3.85966545088335 -15.53496631836761 -11.62220364919164 15.237612194942377 -10.800361438352729 6.297238521678982 1.9564587345169915 13.313717450866077 4.593676981733571 0.2030809201300188 0.6321340785868307 -7.2466628936982715 -0.0000015370740775477916 -4.939167143931386 -0.0000016883275596104508 -10.272486493683939 -2.1540876176027113 2.556745322407724 -10.211191092885777 12.444030334123148 -5.388814265494611 -2.376399199665264 -6.278533755967038 3.863323014403119 -0.000013994337807250898 -7.479426555198432 0.0000019376946363259892
-0.04871577396988869 -0.14705035295811442 0.046833060681819916 -4.524401135611574 -3.5467726370387633 -1.372109790390609 1.5517293221207096 3.273361385285672 1.4929273280577315 0.6988412783326468 2.223089355624815 2.4862606121937496 0 0 0 0.08700818556849063 5.438974819460564 0.37167634836098234 1.8687392557839253 -8.140233961285523 -0.4216316891160317 0 0 0 0 0 0 -17.57047385514343 1.0173388424120027 -12.430051531569173 -18.07959511818693 3.459226605584131 -69.3945990095398 -2.774084848509259 0.0008574197454202283 0.0358128079872685 -2.1800500381627947 -27.993075582604213 -5.375489486485815 -1.3277641673414948 0.31268425057359833 -5.160710008191898 1.7152815974624849 0.2955214242492986 -19.551960675158877 1.1372491095081483 0.12774468031511646 -12.82077202316139 5.76528828297408 0.5172419368719268 -31.18581588711772 1.9332365898351123 0.37855507661730986 -22.158472184470345 1.8865496988369816 0.35981451604184894 -21.596303303239143 2.635958164005795 -0.08983516041356544 -17.282102622190394 1.8658881505473601 0.351695212272415 -21.34817313266252 1.6450591457813357 0.2711649651436668 -18.72121334243694 3.616435212441375 0.10355687661761712 -25.9440900614314 2.0096597457982526 0.4103975599834998 -23.083596580503873 1.587576952105843 0.25206086020395013 -18.044287661231852 1.5474553866520668 -0.6330040735931376 5.011138024370429 23.0742706734525 10.514444651442329 19.30890037585637 2.9291358078606984 -14.23597610484018 9.263136893608923 15.49147268527902 1.1644076646310968 14.729679014097039 26.328753913354273 11.133128625531434 63.49192083338182 6.6775906865388395 0.005013673602843486 -0.08606343116859659 0.21471864308150956 -15.834170877775904 6.457043007561478 1.0677491696974417 -0.0014392205763668771 10.681958637682815 -1.5473461219759415 0.31801206558736744 23.226322595493176 -0.9278959912120053 0.11130622677708477 13.680355020573488 -4.692953562495325 0.8225660598395337 28.977921956903337 -1.5245668077555645 0.3083206827926665 22.864777495858135 -1.4882151611961212 0.29319902256041347 22.290064706604948 -2.2371249214389635 -0.16802965792844643 18.077144774527337 -1.5213451207012834 0.30697637012708334 22.813863335491604 -1.669327761379612 0.37283995304526396 25.178724096393644 -3.0360378479888475 0.03319846982380096 22.870493275321504 -1.7667924360827318 0.42032213900659937 26.761441727477067 -1.6371673034691951 0.3578931941688558 24.661150016387932 -0.22382640850983823 -1.6665230143123084 -4.2078152730999845 -30.67028416797684 11.047863884688024 -22.20195378040926 -3.8595989371093036 -15.534992902782168 -11.622066410039915 15.35400692705055 -10.992008012679962 5.583356206553878 1.8569493902468794 14.07354805188299 4.592026202796239 -0.016159939522430052 0.22405273379076857 -7.353379219881711 3.0904090917626935e-8 -4.998002351596125 -4.2846664477640414e-7 -10.216113411204892 -3.616544407251633 1.8764171539288335 -10.319503778904568 15.248548713380508 -5.91636911042891 -3.0462539649657456 -7.66649104802975 4.185523846237675 0.000006420978314179697 -7.528203723007027 -0.0000026935673189383843
